<?xml version="1.0" encoding="utf-8"?>
<svg version="1.1" xmlns:xlink="http://www.w3.org/1999/xlink" width="68px" height="26px" xmlns="http://www.w3.org/2000/svg">
  <g transform="matrix(1 0 0 1 -1155 -90 )">
    <path d="M 1155.5 94  A 3.5 3.5 0 0 1 1159 90.5 L 1219 90.5  A 3.5 3.5 0 0 1 1222.5 94 L 1222.5 112  A 3.5 3.5 0 0 1 1219 115.5 L 1159 115.5  A 3.5 3.5 0 0 1 1155.5 112 L 1155.5 94  Z " fill-rule="nonzero" fill="#f2f2f2" stroke="none" />
    <path d="M 1155.5 94  A 3.5 3.5 0 0 1 1159 90.5 L 1219 90.5  A 3.5 3.5 0 0 1 1222.5 94 L 1222.5 112  A 3.5 3.5 0 0 1 1219 115.5 L 1159 115.5  A 3.5 3.5 0 0 1 1155.5 112 L 1155.5 94  Z " stroke-width="1" stroke="#d7d7d7" fill="none" />
  </g>
</svg>