<?xml version="1.0" encoding="utf-8"?>
<svg version="1.1" xmlns:xlink="http://www.w3.org/1999/xlink" width="34px" height="42px" xmlns="http://www.w3.org/2000/svg">
  <defs>
    <filter x="102px" y="664px" width="34px" height="42px" filterUnits="userSpaceOnUse" id="filter15">
      <feOffset dx="1" dy="1" in="SourceAlpha" result="shadowOffsetInner" />
      <feGaussianBlur stdDeviation="2.5" in="shadowOffsetInner" result="shadowGaussian" />
      <feComposite in2="shadowGaussian" operator="atop" in="SourceAlpha" result="shadowComposite" />
      <feColorMatrix type="matrix" values="0 0 0 0 0  0 0 0 0 0  0 0 0 0 0  0 0 0 0.698039215686274 0  " in="shadowComposite" />
    </filter>
    <g id="widget16">
      <path d="M 118 699.036928468354  C 113.4 691.40734059591  106.5 686.829587872444  106.5 679.2  C 106.5 675.225714285714  108.8 668.5  118 668.5  C 127.2 668.5  129.5 675.225714285714  129.5 679.2  C 129.5 686.829587872444  122.6 691.40734059591  118 699.036928468354  Z " fill-rule="nonzero" fill="#ffff00" stroke="none" />
      <path d="M 118 700  C 113.2 692  106 687.2  106 679.2  C 106 675.04  108.4 668  118 668  C 127.6 668  130 675.04  130 679.2  C 130 687.2  122.8 692  118 700  Z M 118 698.073856936707  C 122.4 690.81468119182  129 686.459175744887  129 679.2  C 129 675.411428571429  126.8 669  118 669  C 109.2 669  107 675.411428571429  107 679.2  C 107 686.459175744887  113.6 690.81468119182  118 698.073856936707  Z " fill-rule="nonzero" fill="#ffff00" stroke="none" />
    </g>
  </defs>
  <g transform="matrix(1 0 0 1 -102 -664 )">
    <use xlink:href="#widget16" filter="url(#filter15)" />
    <use xlink:href="#widget16" />
  </g>
</svg>