<?xml version="1.0" encoding="utf-8"?>
<svg version="1.1" xmlns:xlink="http://www.w3.org/1999/xlink" width="60px" height="60px" xmlns="http://www.w3.org/2000/svg">
  <g transform="matrix(1 0 0 1 -390 -131 )">
    <path d="M 41.9196428571429 52.7845982142857  C 45.6026785714286 50.8314732142857  48.6272321428572 48.1808035714286  50.9933035714286 44.8325892857143  C 50.5022321428572 41.3727678571429  49.5256696428571 38.4988839285714  48.0636160714286 36.2109375  C 46.6015625 33.9229910714286  44.5424107142857 32.6004464285714  41.8861607142857 32.2433035714286  C 40.390625 33.8950892857143  38.6104910714286 35.1841517857143  36.5457589285714 36.1104910714286  C 34.4810267857143 37.0368303571429  32.2991071428571 37.5  30 37.5  C 27.7008928571429 37.5  25.5189732142857 37.0368303571429  23.4542410714286 36.1104910714286  C 21.3895089285714 35.1841517857143  19.609375 33.8950892857143  18.1138392857143 32.2433035714286  C 15.4575892857143 32.6004464285714  13.3984375 33.9229910714286  11.9363839285714 36.2109375  C 10.4743303571429 38.4988839285714  9.49776785714286 41.3727678571429  9.00669642857143 44.8325892857143  C 11.3727678571429 48.1808035714286  14.3973214285714 50.8314732142857  18.0803571428571 52.7845982142857  C 21.7633928571429 54.7377232142857  25.7366071428571 55.7142857142857  30 55.7142857142857  C 34.2633928571429 55.7142857142857  38.2366071428571 54.7377232142857  41.9196428571429 52.7845982142857  Z M 39.0904017857143 30.5189732142857  C 41.6015625 28.0078125  42.8571428571429 24.9776785714286  42.8571428571429 21.4285714285714  C 42.8571428571429 17.8794642857143  41.6015625 14.8493303571429  39.0904017857143 12.3381696428571  C 36.5792410714286 9.82700892857143  33.5491071428571 8.57142857142857  30 8.57142857142857  C 26.4508928571429 8.57142857142857  23.4207589285714 9.82700892857143  20.9095982142857 12.3381696428571  C 18.3984375 14.8493303571429  17.1428571428571 17.8794642857143  17.1428571428571 21.4285714285714  C 17.1428571428571 24.9776785714286  18.3984375 28.0078125  20.9095982142857 30.5189732142857  C 23.4207589285714 33.0301339285714  26.4508928571429 34.2857142857143  30 34.2857142857143  C 33.5491071428571 34.2857142857143  36.5792410714286 33.0301339285714  39.0904017857143 30.5189732142857  Z M 57.6227678571429 18.3482142857143  C 59.2075892857143 22.0535714285714  60 25.9375  60 30  C 60 34.0625  59.2075892857143 37.9408482142857  57.6227678571429 41.6350446428571  C 56.0379464285714 45.3292410714286  53.9118303571429 48.5212053571429  51.2444196428571 51.2109375  C 48.5770089285714 53.9006696428571  45.390625 56.0379464285714  41.6852678571429 57.6227678571429  C 37.9799107142857 59.2075892857143  34.0848214285714 60  30 60  C 25.9375 60  22.0535714285714 59.2075892857143  18.3482142857143 57.6227678571429  C 14.6428571428571 56.0379464285714  11.4508928571429 53.90625  8.77232142857143 51.2276785714286  C 6.09375 48.5491071428571  3.96205357142857 45.3571428571429  2.37723214285714 41.6517857142857  C 0.792410714285714 37.9464285714286  0 34.0625  0 30  C 0 25.9375  0.792410714285714 22.0535714285714  2.37723214285714 18.3482142857143  C 3.96205357142857 14.6428571428571  6.09375 11.4508928571429  8.77232142857143 8.77232142857143  C 11.4508928571429 6.09375  14.6428571428571 3.96205357142857  18.3482142857143 2.37723214285714  C 22.0535714285714 0.792410714285714  25.9375 0  30 0  C 34.0625 0  37.9464285714286 0.792410714285714  41.6517857142857 2.37723214285714  C 45.3571428571429 3.96205357142857  48.5491071428571 6.09375  51.2276785714286 8.77232142857143  C 53.90625 11.4508928571429  56.0379464285714 14.6428571428571  57.6227678571429 18.3482142857143  Z " fill-rule="nonzero" fill="#aaaaaa" stroke="none" transform="matrix(1 0 0 1 390 131 )" />
  </g>
</svg>