<?xml version="1.0" encoding="utf-8"?>
<svg version="1.1" xmlns:xlink="http://www.w3.org/1999/xlink" width="50px" height="50px" xmlns="http://www.w3.org/2000/svg">
  <g transform="matrix(1 0 0 1 -421 -547 )">
    <path d="M 27.6513152426983 25  L 27.6540929770692 25  L 32.0720257830976 29.4193216796875  C 32.4239165691259 29.7710282279791  32.6216222493877 30.2481552667254  32.6216222493877 30.7456737304687  C 32.6216222493877 31.781347963276  31.7820423991421 32.6209278147514  30.746368167852 32.6209278147514  C 30.2491900163109 32.6209278147514  29.7723606390811 32.42349175601  29.4207105526064 32.07202578125  L 25.0013888793925 27.6499263671875  L 20.5820672061786 32.0692480957031  C 20.2303606561551 32.4211388780145  19.7532336189499 32.6188445556431  19.2557151573403 32.6188445556431  C 18.2200409165183 32.6188445556431  17.3804610585457 31.7792646964406  17.3804610585457 30.7435904541016  C 17.3804610585457 30.2464122912729  17.577897123554 29.769582903722  17.9293631085019 29.4179328125  L 22.3514624672586 25  L 17.9321407940447 20.5806783203125  C 17.5802500080164 20.2289717720209  17.3825443277546 19.7518447332746  17.3825443277546 19.2543262695313  C 17.3825443277546 18.218652036724  18.2221241780002 17.3790721852486  19.2577984092903 17.3790721852486  C 19.7549765608314 17.3790721852486  20.2318059380612 17.57650824399  20.583456024536 17.92797421875  L 25.0013888793925 22.3500736328125  L 29.4207105526064 17.9307519042969  C 29.7724171026299 17.5788611219855  30.2495441398351 17.3811554443569  30.7470626014447 17.3811554443569  C 31.7827368422667 17.3811554443569  32.6223167002393 18.2207353035594  32.6223167002393 19.2564095458984  C 32.6223167002393 19.7535877087271  32.424880635231 20.230417096278  32.0734146502831 20.5820671875  L 27.6513152426983 25  Z M 7.3227133193515 7.32271328125  C 17.0863309808306 -2.44090439453125  32.9136690924116 -2.44090439453125  42.6772867538907 7.32271328125  C 52.4409044153698 17.0863309570312  52.4409044153698 32.9136690917969  42.6772867538907 42.67728671875  C 32.9136690924116 52.4409043945312  17.0863309808306 52.4409043945312  7.3227133193515 42.67728671875  C -2.44090434212758 32.9136690429687  -2.44090434212758 17.0863309082031  7.3227133193515 7.32271328125  Z M 40.0259715233995 9.974028515625  L 40.024582656214 9.97541733398437  C 31.7275909203209 1.67564790039063  18.2724091529213 1.67564790039063  9.97402854984274 9.97541733398437  C 1.67564794676419 18.2724090820312  1.67564794676419 31.7275908691406  9.97402854984274 40.025971484375  C 18.2724091529213 48.3243520996094  31.7275909203209 48.3243520996094  40.0259715233995 40.025971484375  C 48.324352126478 31.7275908691406  48.324352126478 18.2724090820312  40.0259715233995 9.974028515625  Z " fill-rule="nonzero" fill="#fdfdfd" stroke="none" transform="matrix(1 0 0 1 421 547 )" />
  </g>
</svg>