<?xml version="1.0" encoding="utf-8"?>
<svg version="1.1" xmlns:xlink="http://www.w3.org/1999/xlink" width="20px" height="20px" xmlns="http://www.w3.org/2000/svg">
  <g transform="matrix(1 0 0 1 -405 -264 )">
    <path d="M 13.9732142857143 17.5948660714286  C 15.2008928571429 16.9438244047619  16.2090773809524 16.0602678571429  16.9977678571429 14.9441964285714  C 16.8340773809524 13.7909226190476  16.508556547619 12.8329613095238  16.0212053571429 12.0703125  C 15.5338541666667 11.3076636904762  14.8474702380952 10.8668154761905  13.9620535714286 10.7477678571429  C 13.4635416666667 11.2983630952381  12.8701636904762 11.7280505952381  12.1819196428571 12.0368303571429  C 11.4936755952381 12.3456101190476  10.766369047619 12.5  10 12.5  C 9.23363095238095 12.5  8.50632440476191 12.3456101190476  7.81808035714286 12.0368303571429  C 7.12983630952381 11.7280505952381  6.53645833333333 11.2983630952381  6.03794642857143 10.7477678571429  C 5.15252976190476 10.8668154761905  4.46614583333333 11.3076636904762  3.97879464285714 12.0703125  C 3.49144345238095 12.8329613095238  3.16592261904762 13.7909226190476  3.00223214285714 14.9441964285714  C 3.79092261904762 16.0602678571429  4.79910714285714 16.9438244047619  6.02678571428571 17.5948660714286  C 7.25446428571429 18.2459077380952  8.57886904761905 18.5714285714286  10 18.5714285714286  C 11.421130952381 18.5714285714286  12.7455357142857 18.2459077380952  13.9732142857143 17.5948660714286  Z M 13.0301339285714 10.1729910714286  C 13.8671875 9.3359375  14.2857142857143 8.32589285714286  14.2857142857143 7.14285714285714  C 14.2857142857143 5.95982142857143  13.8671875 4.94977678571429  13.0301339285714 4.11272321428571  C 12.1930803571429 3.27566964285714  11.1830357142857 2.85714285714286  10 2.85714285714286  C 8.81696428571429 2.85714285714286  7.80691964285714 3.27566964285714  6.96986607142857 4.11272321428571  C 6.1328125 4.94977678571429  5.71428571428571 5.95982142857143  5.71428571428571 7.14285714285714  C 5.71428571428571 8.32589285714286  6.1328125 9.3359375  6.96986607142857 10.1729910714286  C 7.80691964285714 11.0100446428571  8.81696428571429 11.4285714285714  10 11.4285714285714  C 11.1830357142857 11.4285714285714  12.1930803571429 11.0100446428571  13.0301339285714 10.1729910714286  Z M 19.2075892857143 6.11607142857143  C 19.7358630952381 7.35119047619047  20 8.64583333333333  20 10  C 20 11.3541666666667  19.7358630952381 12.6469494047619  19.2075892857143 13.8783482142857  C 18.6793154761905 15.1097470238095  17.9706101190476 16.1737351190476  17.0814732142857 17.0703125  C 16.1923363095238 17.9668898809524  15.1302083333333 18.6793154761905  13.8950892857143 19.2075892857143  C 12.6599702380952 19.7358630952381  11.3616071428571 20  10 20  C 8.64583333333333 20  7.35119047619048 19.7358630952381  6.11607142857143 19.2075892857143  C 4.88095238095238 18.6793154761905  3.81696428571429 17.96875  2.92410714285714 17.0758928571429  C 2.03125 16.1830357142857  1.32068452380952 15.1190476190476  0.792410714285714 13.8839285714286  C 0.264136904761905 12.6488095238095  0 11.3541666666667  0 10  C 0 8.64583333333333  0.264136904761905 7.35119047619047  0.792410714285714 6.11607142857143  C 1.32068452380952 4.88095238095238  2.03125 3.81696428571429  2.92410714285714 2.92410714285714  C 3.81696428571429 2.03125  4.88095238095238 1.32068452380952  6.11607142857143 0.792410714285714  C 7.35119047619048 0.264136904761905  8.64583333333333 0  10 0  C 11.3541666666667 0  12.6488095238095 0.264136904761905  13.8839285714286 0.792410714285714  C 15.1190476190476 1.32068452380952  16.1830357142857 2.03125  17.0758928571429 2.92410714285714  C 17.96875 3.81696428571429  18.6793154761905 4.88095238095238  19.2075892857143 6.11607142857143  Z " fill-rule="nonzero" fill="#aaaaaa" stroke="none" transform="matrix(1 0 0 1 405 264 )" />
  </g>
</svg>